<svg viewBox="0 0 512.26668 512" xmlns="http://www.w3.org/2000/svg" xmlns:xlink="http://www.w3.org/1999/xlink"><linearGradient id="a"><stop offset="0" stop-color="#ff99b5"/><stop offset="1" stop-color="#ffdc68"/></linearGradient><linearGradient id="b" gradientTransform="matrix(2.66667 0 0 -2.66667 0 517.467)" gradientUnits="userSpaceOnUse" x1="5.884" x2="31.47" xlink:href="#a" y1="136.943" y2="162.53"/><linearGradient id="c" gradientTransform="matrix(2.66667 0 0 -2.66667 0 517.467)" gradientUnits="userSpaceOnUse" x1="156.793" x2="189.853" xlink:href="#a" y1="21.207" y2="54.266"/><path d="m362.667969 213.464844-170.667969 21.335937-170.667969-21.335937c-11.730469 0-21.332031 9.601562-21.332031 21.335937v256c0 11.734375 9.601562 21.332031 21.332031 21.332031l170.667969-21.332031 170.667969 21.332031c11.730469 0 21.332031-9.597656 21.332031-21.332031v-256c0-11.734375-9.601562-21.335937-21.332031-21.335937zm0 0" fill="#ffe58e"/><path d="m377.867188 475.601562-170.667969-170.667968c-8.265625-8.265625-21.867188-8.265625-30.132813 0l-170.667968 170.667968c-8.265626 8.265626-8.265626 21.863282 0 30.132813 4 4 9.335937 6.132813 15.203124 6.132813h341.332032c11.734375 0 21.332031-9.601563 21.332031-21.332032-.265625-5.335937-2.398437-10.933594-6.398437-14.933594zm0 0" fill="#ffedb4"/><path d="m382.933594 228.132812c-2.933594-8.800781-10.933594-14.667968-20.265625-14.667968h-341.335938c-11.730469 0-21.332031 9.601562-21.332031 21.335937 0 6.664063 3.199219 13.066407 8.535156 17.066407l170.664063 128c7.46875 5.597656 18.132812 5.597656 25.601562 0l170.664063-128c7.46875-5.601563 10.402344-15.199219 7.46875-23.734376zm0 0" fill="#fff6d9"/><path d="m490.667969.132812-170.667969 21.332032-170.667969-21.332032c-11.730469 0-21.332031 9.601563-21.332031 21.332032v256c0 11.734375 9.601562 21.335937 21.332031 21.335937l170.667969-21.335937 170.667969 21.335937c11.730469 0 21.332031-9.601562 21.332031-21.335937v-256c0-11.730469-9.601562-21.332032-21.332031-21.332032zm0 0" fill="#ffe58e"/><path d="m505.867188 262.265625-170.667969-170.664063c-8.265625-8.269531-21.867188-8.269531-30.132813 0l-170.667968 170.664063c-8.265626 8.269531-8.265626 21.867187 0 30.132813 4 4 9.335937 6.136718 15.203124 6.136718h341.332032c11.734375 0 21.332031-9.601562 21.332031-21.335937-.265625-5.332031-2.398437-10.933594-6.398437-14.933594zm0 0" fill="#ffedb4"/><path d="m510.933594 14.800781c-2.933594-8.800781-11.199219-14.667969-20.265625-14.667969h-341.335938c-11.730469 0-21.332031 9.601563-21.332031 21.332032 0 6.667968 3.199219 13.070312 8.535156 17.070312l170.664063 128c7.46875 5.597656 18.132812 5.597656 25.601562 0l170.664063-128c7.46875-5.601562 10.402344-15.203125 7.46875-23.734375zm0 0" fill="#fff6d9"/><path d="m62.933594 70.800781-40.535156-13.335937-21.332032 64c-4.265625 13.601562 6.132813 27.734375 20.265625 28h85.335938v-42.664063h-55.734375zm0 0" fill="url(#b)"/><path d="m510.933594 420.132812-21.332032-64-40.535156 13.601563 12 36h-55.734375v42.664063h85.335938c14.132812-.53125 24.53125-14.664063 20.265625-28.265626zm0 0" fill="url(#c)"/></svg>