<svg viewBox="-43 0 512 512.00002" xmlns="http://www.w3.org/2000/svg" xmlns:xlink="http://www.w3.org/1999/xlink"><linearGradient id="a" gradientTransform="matrix(2.66667 0 0 -2.66667 -42.667 517.333)" gradientUnits="userSpaceOnUse" x1="4.686" x2="155.314" y1="22.686" y2="173.314"><stop offset="0" stop-color="#ff99b5"/><stop offset="1" stop-color="#ffdc68"/></linearGradient><path d="m42.667969 0h256c23.464843 0 42.664062 19.199219 42.664062 42.667969v426.664062c0 23.46875-19.199219 42.667969-42.664062 42.667969h-256c-23.46875 0-42.667969-19.199219-42.667969-42.667969v-426.664062c0-23.46875 19.199219-42.667969 42.667969-42.667969zm0 0" fill="url(#a)"/><path d="m298.667969 0h-256c-23.46875 0-42.667969 19.199219-42.667969 42.667969v21.332031h341.332031v-21.332031c0-23.46875-19.199219-42.667969-42.664062-42.667969zm0 0" fill="#ffe58e"/><path d="m341.332031 426.667969h-341.332031v42.664062c0 23.46875 19.199219 42.667969 42.667969 42.667969h256c23.464843 0 42.664062-19.199219 42.664062-42.667969zm0 0" fill="#ffe58e"/><path d="m149.332031 448h42.667969c11.734375 0 21.332031 9.601562 21.332031 21.332031 0 11.734375-9.597656 21.335938-21.332031 21.335938h-42.667969c-11.730469 0-21.332031-9.601563-21.332031-21.335938 0-11.730469 9.601562-21.332031 21.332031-21.332031zm0 0" fill="#ffdc68"/><path d="m405.332031 106.667969-128 21.332031-128-21.332031c-11.730469 0-21.332031 9.597656-21.332031 21.332031v192c0 11.734375 9.601562 21.332031 21.332031 21.332031l128-21.332031 128 21.332031c11.734375 0 21.335938-9.597656 21.335938-21.332031v-192c0-11.734375-9.601563-21.332031-21.335938-21.332031zm0 0" fill="#ffe58e"/><path d="m420.535156 304.800781-128-128c-8.269531-8.265625-21.867187-8.265625-30.136718 0l-128 128c-4 4-6.132813 9.332031-6.132813 15.199219v64c0 18.667969 23.199219 28.265625 36.535156 15.199219l79.199219-57.867188h161.332031c11.734375 0 21.335938-9.597656 21.335938-21.332031 0-5.601562-2.132813-11.199219-6.132813-15.199219zm0 0" fill="#ffedb4"/><path d="m425.332031 120.800781c-2.933593-8.535156-11.199219-14.132812-20-14.132812h-256c-11.730469 0-21.332031 9.597656-21.332031 21.332031 0 6.398438 2.933594 12.265625 7.734375 16.265625l128 106.667969c8 6.398437 19.464844 6.398437 27.199219 0l128-106.667969c6.933594-5.597656 9.601562-15.199219 6.398437-23.464844zm0 0" fill="#fff2c6"/></svg>