<svg viewBox="1 -21 511.99943 511" xmlns="http://www.w3.org/2000/svg" xmlns:xlink="http://www.w3.org/1999/xlink"><linearGradient id="a" gradientUnits="userSpaceOnUse" x1="293.53270025" x2="474.46625975" y1="218.96693975" y2="38.03338025"><stop offset="0" stop-color="#ff99b5"/><stop offset="1" stop-color="#ffdc68"/></linearGradient><path d="m490.667969 107.167969-234.667969 21.332031-234.667969-21.332031c-11.78125 0-21.332031 9.550781-21.332031 21.332031v320c0 11.78125 9.550781 21.332031 21.332031 21.332031l234.667969-21.332031 234.667969 21.332031c11.78125 0 21.332031-9.550781 21.332031-21.332031v-320c0-11.78125-9.550781-21.332031-21.332031-21.332031zm0 0" fill="#ffe58e"/><path d="m505.019531 432.714844-234.667969-213.332032c-8.136718-7.398437-20.566406-7.398437-28.703124 0l-234.667969 213.332032c-6.519531 5.929687-8.722657 15.257812-5.546875 23.480468 3.179687 8.21875 11.085937 13.636719 19.898437 13.636719h469.335938c8.8125 0 16.71875-5.417969 19.894531-13.636719 3.179688-8.222656.976562-17.550781-5.542969-23.480468zm0 0" fill="#ffedb4"/><path d="m510.953125 121.902344c-2.859375-8.785156-11.046875-14.734375-20.285156-14.734375h-469.335938c-9.238281 0-17.429687 5.949219-20.285156 14.734375-2.859375 8.789062.265625 18.417968 7.738281 23.851562l234.667969 170.664063c7.5 5.382812 17.59375 5.382812 25.09375 0l234.664063-170.664063c7.472656-5.4375 10.597656-15.0625 7.742187-23.851562zm0 0" fill="#fff2c6"/><path d="m384 .5c-70.691406 0-128 57.308594-128 128s57.308594 128 128 128 128-57.308594 128-128c-.078125-70.660156-57.339844-127.921875-128-128zm0 0" fill="url(#a)"/><path d="m416 192.5h-42.667969v-88.140625l-30.832031 20.554687-23.664062-35.496093 64-42.667969c6.542968-4.363281 14.960937-4.769531 21.894531-1.058594 6.9375 3.714844 11.269531 10.941406 11.269531 18.808594zm0 0" fill="#fff"/></svg>