<svg viewBox="0 0 512.06532 512" xmlns="http://www.w3.org/2000/svg" xmlns:xlink="http://www.w3.org/1999/xlink"><linearGradient id="a" gradientTransform="matrix(2.66667 0 0 -2.66667 .053 517.366)" gradientUnits="userSpaceOnUse" x1="127.414" x2="178.242" y1="154.585" y2="205.414"><stop offset="0" stop-color="#ff99b5"/><stop offset="1" stop-color="#ffdc68"/></linearGradient><path d="m362.71875 21.367188h42.667969v149.332031h-42.667969zm0 0" fill="#ffe58e"/><path d="m362.71875.03125h138.667969c5.867187 0 10.667969 4.800781 10.667969 10.667969 0 3.464843-1.601563 6.398437-4.269532 8.535156l-145.066406 108.796875zm0 0" fill="url(#a)"/><path d="m490.71875 149.367188-234.664062 21.332031-234.667969-21.332031c-11.734375 0-21.3320315 9.597656-21.3320315 21.332031v320c0 11.734375 9.5976565 21.332031 21.3320315 21.332031l234.667969-21.332031 234.664062 21.332031c11.734375 0 21.335938-9.597656 21.335938-21.332031v-320c0-11.734375-9.601563-21.332031-21.335938-21.332031zm0 0" fill="#ffe58e"/><path d="m505.121094 474.964844-234.667969-213.332032c-8.265625-7.46875-20.535156-7.46875-28.800781 0l-234.667969 213.332032c-8.796875 8-9.332031 21.335937-1.332031 30.132812 4 4.269532 9.601562 6.933594 15.734375 6.933594h469.332031c11.734375 0 21.335938-9.597656 21.335938-21.332031 0-6.132813-2.667969-11.734375-6.933594-15.734375zm0 0" fill="#ffedb4"/><path d="m510.984375 164.03125c-2.929687-8.796875-10.929687-14.664062-20.265625-14.664062h-469.332031c-11.734375 0-21.3320315 9.597656-21.3320315 21.332031 0 6.933593 3.1992185 13.332031 8.7968745 17.332031l234.667969 170.667969c7.464844 5.332031 17.601563 5.332031 25.066407 0l234.667968-170.667969c7.464844-5.597656 10.664063-15.199219 7.730469-24zm0 0" fill="#fff6d9"/></svg>