<svg viewBox="0 -22 512.31945 512" xmlns="http://www.w3.org/2000/svg" xmlns:xlink="http://www.w3.org/1999/xlink"><linearGradient id="a" gradientTransform="matrix(2.66667 0 0 -2.66667 .053 517.36)" gradientUnits="userSpaceOnUse" x1="106.342" x2="181.657" y1="116.342" y2="191.657"><stop offset="0" stop-color="#ff99b5"/><stop offset="1" stop-color="#ffdc68"/></linearGradient><path d="m490.71875 106.691406-234.664062 21.335938-234.667969-21.335938c-11.734375 0-21.3320315 9.601563-21.3320315 21.335938v320c0 11.730468 9.5976565 21.332031 21.3320315 21.332031l234.667969-21.332031 234.664062 21.332031c11.734375 0 21.335938-9.601563 21.335938-21.332031v-320c0-11.734375-9.601563-21.335938-21.335938-21.335938zm0 0" fill="#ffe58e"/><path d="m505.121094 432.292969-234.667969-213.332031c-8.265625-7.46875-20.535156-7.46875-28.800781 0l-234.667969 213.332031c-8.796875 8-9.332031 21.332031-1.332031 30.132812 4 4.265625 9.601562 6.933594 15.734375 6.933594h469.332031c11.734375 0 21.335938-9.601563 21.335938-21.332031 0-6.132813-2.667969-11.734375-6.933594-15.734375zm0 0" fill="#ffedb4"/><path d="m510.984375 121.359375c-2.929687-8.800781-10.929687-14.667969-20.265625-14.667969h-469.332031c-11.734375 0-21.3320315 9.601563-21.3320315 21.335938 0 6.933594 3.1992185 13.332031 8.7968745 17.332031l234.667969 170.667969c7.464844 5.332031 17.601563 5.332031 25.066407 0l234.667968-170.667969c7.464844-5.601563 10.664063-15.199219 7.730469-24zm0 0" fill="#fff6d9"/><path d="m490.71875 128.027344v-85.335938l-106.664062-21.332031v106.667969zm0 0" fill="#ffe58e"/><path d="m384.054688 21.359375-106.667969 21.332031v85.335938h106.667969zm0 0" fill="#fff2c6"/><path d="m384.054688 128.027344v128l106.664062-85.335938v-42.664062zm0 0" fill="#fff2c6"/><path d="m277.386719 128.027344v42.664062l106.667969 85.335938v-128zm0 0" fill="#ffe58e"/><path d="m494.984375 21.894531-106.664063-21.335937c-2.667968-.5312502-5.601562-.5312502-8.265624 0l-106.667969 21.335937c-9.867188 1.863281-17.066407 10.664063-17.066407 20.796875v128c0 6.402344 2.933594 12.535156 8 16.535156l106.664063 85.332032c7.734375 6.132812 18.933594 6.132812 26.667969 0l106.667968-85.332032c5.066407-4 8-10.132812 8-16.535156v-128c-.265624-10.132812-7.46875-18.933594-17.335937-20.796875zm-25.597656 138.664063-85.332031 68.269531-85.335938-68.269531v-100.265625l85.335938-17.066407 85.332031 17.066407zm0 0" fill="url(#a)"/></svg>