<svg viewBox="0 0 512.06532 512" xmlns="http://www.w3.org/2000/svg" xmlns:xlink="http://www.w3.org/1999/xlink"><linearGradient id="a" gradientTransform="matrix(2.66667 0 0 -2.66667 .053 517.366)" gradientUnits="userSpaceOnUse" x1="64.343" x2="127.657" y1="-1.657" y2="61.657"><stop offset="0" stop-color="#ff99b5"/><stop offset="1" stop-color="#ffdc68"/></linearGradient><path d="m490.71875.03125-234.664062 21.335938-234.667969-21.335938c-11.734375 0-21.3320315 9.601562-21.3320315 21.335938v320c0 11.730468 9.5976565 21.332031 21.3320315 21.332031l234.667969-21.332031 234.664062 21.332031c11.734375 0 21.335938-9.601563 21.335938-21.332031v-320c0-11.734376-9.601563-21.335938-21.335938-21.335938zm0 0" fill="#ffe58e"/><path d="m505.121094 325.632812-234.667969-213.332031c-8.265625-7.46875-20.535156-7.46875-28.800781 0l-234.667969 213.332031c-8.796875 8-9.332031 21.332032-1.332031 30.132813 4 4.265625 9.601562 6.933594 15.734375 6.933594h469.332031c11.734375 0 21.335938-9.601563 21.335938-21.332031 0-6.132813-2.667969-11.734376-6.933594-15.734376zm0 0" fill="#ffedb4"/><path d="m510.984375 14.699219c-2.929687-8.800781-10.929687-14.667969-20.265625-14.667969h-469.332031c-11.734375 0-21.3320315 9.601562-21.3320315 21.335938 0 6.933593 3.1992185 13.332031 8.7968745 17.332031l234.667969 170.667969c7.464844 5.332031 17.601563 5.332031 25.066407 0l234.667968-170.667969c7.464844-5.601563 10.664063-15.199219 7.730469-24zm0 0" fill="#fff6d9"/><path d="m192.054688 341.367188h42.664062v42.664062h-42.664062zm0 0" fill="#ffdc68"/><path d="m320.054688 384.03125h-42.667969v-85.332031c0-11.734375-9.601563-21.332031-21.332031-21.332031-11.734376 0-21.335938 9.597656-21.335938 21.332031h-42.664062c0-35.464844 28.53125-64 64-64 35.464843 0 64 28.535156 64 64zm0 0" fill="#ffdc68"/><path d="m170.71875 362.699219h170.667969c11.734375 0 21.332031 9.601562 21.332031 21.332031v106.667969c0 11.734375-9.597656 21.332031-21.332031 21.332031h-170.667969c-11.734375 0-21.332031-9.597656-21.332031-21.332031v-106.667969c0-11.730469 9.597656-21.332031 21.332031-21.332031zm0 0" fill="url(#a)"/><path d="m298.71875 405.367188h-85.332031v42.664062h21.332031v42.667969h42.667969v-42.667969h21.332031zm0 0" fill="#fff"/></svg>