<svg viewBox="1 -21 511.99943 511" xmlns="http://www.w3.org/2000/svg" xmlns:xlink="http://www.w3.org/1999/xlink"><linearGradient id="a" gradientUnits="userSpaceOnUse" x1="293.53270025" x2="474.46625975" y1="432.30025975" y2="251.36670025"><stop offset="0" stop-color="#ff99b5"/><stop offset="1" stop-color="#ffdc68"/></linearGradient><path d="m490.667969.5-234.667969 21.332031-234.667969-21.332031c-11.78125 0-21.332031 9.550781-21.332031 21.332031v320c0 11.78125 9.550781 21.335938 21.332031 21.335938l234.667969-21.335938 234.667969 21.335938c11.78125 0 21.332031-9.554688 21.332031-21.335938v-320c0-11.78125-9.550781-21.332031-21.332031-21.332031zm0 0" fill="#ffe58e"/><path d="m505.019531 326.050781-234.667969-213.335937c-8.136718-7.398438-20.566406-7.398438-28.703124 0l-234.667969 213.335937c-6.519531 5.925781-8.722657 15.253907-5.546875 23.476563 3.179687 8.21875 11.085937 13.640625 19.898437 13.640625h469.335938c8.8125 0 16.71875-5.421875 19.894531-13.640625 3.179688-8.222656.976562-17.550782-5.542969-23.476563zm0 0" fill="#ffedb4"/><path d="m510.953125 15.234375c-2.859375-8.785156-11.046875-14.734375-20.285156-14.734375h-469.335938c-9.238281 0-17.429687 5.949219-20.285156 14.738281-2.859375 8.785157.265625 18.414063 7.738281 23.847657l234.667969 170.667968c7.5 5.378906 17.59375 5.378906 25.09375 0l234.664063-170.667968c7.472656-5.433594 10.597656-15.0625 7.742187-23.851563zm0 0" fill="#fff2c6"/><path d="m384 213.832031c-70.691406 0-128 57.308594-128 128 0 70.695313 57.308594 128 128 128s128-57.304687 128-128c-.078125-70.660156-57.339844-127.917969-128-128zm0 0" fill="url(#a)"/><g fill="#fff"><path d="m362.667969 277.832031h42.664062v128h-42.664062zm0 0"/><path d="m320 320.5h128v42.667969h-128zm0 0"/></g></svg>