<svg viewBox="0 -11 512.06532 512" xmlns="http://www.w3.org/2000/svg" xmlns:xlink="http://www.w3.org/1999/xlink"><linearGradient id="a" gradientTransform="matrix(2.66667 0 0 -2.66667 .053 496.033)" gradientUnits="userSpaceOnUse" x1="113.172" x2="182.828" y1="5.515" y2="75.172"><stop offset="0" stop-color="#ff99b5"/><stop offset="1" stop-color="#ffdc68"/></linearGradient><path d="m490.71875.03125-234.664062 21.335938-234.667969-21.335938c-11.734375 0-21.3320315 9.601562-21.3320315 21.335938v320c0 11.730468 9.5976565 21.332031 21.3320315 21.332031l234.667969-21.332031 234.664062 21.332031c11.734375 0 21.335938-9.601563 21.335938-21.332031v-320c0-11.734376-9.601563-21.335938-21.335938-21.335938zm0 0" fill="#ffe58e"/><path d="m505.121094 325.632812-234.667969-213.332031c-8.265625-7.46875-20.535156-7.46875-28.800781 0l-234.667969 213.332031c-8.796875 8-9.332031 21.332032-1.332031 30.132813 4 4.265625 9.601562 6.933594 15.734375 6.933594h469.332031c11.734375 0 21.335938-9.601563 21.335938-21.332031 0-6.132813-2.667969-11.734376-6.933594-15.734376zm0 0" fill="#ffedb4"/><path d="m510.984375 14.699219c-2.929687-8.800781-10.929687-14.667969-20.265625-14.667969h-469.332031c-8.800781 0-16.800781 5.335938-19.734375 13.601562-3.464844 8.800782-.53125 19.464844 7.199218 25.066407l234.667969 170.667969c7.464844 5.332031 17.601563 5.332031 25.066407 0l234.667968-170.667969c7.464844-5.601563 10.664063-15.199219 7.730469-24zm0 0" fill="#fff6d9"/><path d="m298.71875 298.699219h192v170.667969c0 11.730468-9.597656 21.332031-21.332031 21.332031h-149.332031c-11.734376 0-21.335938-9.601563-21.335938-21.332031zm0 0" fill="url(#a)"/><path d="m277.386719 277.367188h234.667969v42.664062h-234.667969zm0 0" fill="#fff6d9"/><path d="m362.71875 234.699219h64v42.667969h-64zm0 0" fill="#ffdc68"/><g fill="#fff"><path d="m405.386719 341.367188h42.667969v106.664062h-42.667969zm0 0"/><path d="m341.386719 341.367188h42.667969v106.664062h-42.667969zm0 0"/></g></svg>