<svg viewBox="0 -21 512.06532 512" xmlns="http://www.w3.org/2000/svg" xmlns:xlink="http://www.w3.org/1999/xlink"><linearGradient id="a" gradientTransform="matrix(2.66667 0 0 -2.66667 .053 474.699)" gradientUnits="userSpaceOnUse" x1="113.101" x2="174.898" y1="18.845" y2="80.641"><stop offset="0" stop-color="#ff99b5"/><stop offset="1" stop-color="#ffdc68"/></linearGradient><path d="m490.71875.03125-234.664062 21.335938-234.667969-21.335938c-11.734375 0-21.3320315 9.601562-21.3320315 21.335938v320c0 11.730468 9.5976565 21.332031 21.3320315 21.332031l234.667969-21.332031 234.664062 21.332031c11.734375 0 21.335938-9.601563 21.335938-21.332031v-320c0-11.734376-9.601563-21.335938-21.335938-21.335938zm0 0" fill="#ffe58e"/><path d="m505.121094 325.632812-234.667969-213.332031c-8.265625-7.46875-20.535156-7.46875-28.800781 0l-234.667969 213.332031c-8.796875 8-9.332031 21.332032-1.332031 30.132813 4 4.265625 9.601562 6.933594 15.734375 6.933594h469.332031c11.734375 0 21.335938-9.601563 21.335938-21.332031 0-6.132813-2.667969-11.734376-6.933594-15.734376zm0 0" fill="#ffedb4"/><path d="m510.984375 14.699219c-2.929687-8.800781-10.929687-14.667969-20.265625-14.667969h-469.332031c-11.734375 0-21.3320315 9.601562-21.3320315 21.335938 0 6.933593 3.1992185 13.332031 8.7968745 17.332031l234.667969 170.667969c7.464844 5.332031 17.601563 5.332031 25.066407 0l234.667968-170.667969c7.464844-5.601563 10.664063-15.199219 7.730469-24zm0 0" fill="#fff6d9"/><path d="m449.386719 257.097656c-12.265625-2.933594-39.734375-4.796875-65.332031 24.269532-25.601563-29.066407-53.070313-27.203126-65.335938-24.269532-33.867188 8-62.664062 46.667969-62.664062 84.269532 0 76.265624 107.730468 121.597656 120 126.398437 5.066406 2.132813 10.664062 2.132813 15.730468 0 12.269532-4.800781 120-50.132813 120-126.398437.269532-37.601563-28.265625-76.269532-62.398437-84.269532zm0 0" fill="url(#a)"/><path d="m469.386719 320.03125c0 11.785156-9.550781 21.335938-21.332031 21.335938-11.785157 0-21.335938-9.550782-21.335938-21.335938 0-11.78125 9.550781-21.332031 21.335938-21.332031 11.78125 0 21.332031 9.550781 21.332031 21.332031zm0 0" fill="#fff"/></svg>