<svg viewBox="0 0 505.75318 505" xmlns="http://www.w3.org/2000/svg" xmlns:xlink="http://www.w3.org/1999/xlink"><linearGradient id="a" gradientUnits="userSpaceOnUse" x1="71.32008915" x2="312.68039085" y1="313.05739085" y2="71.69708915"><stop offset="0" stop-color="#ff99b5"/><stop offset="1" stop-color="#ffdc68"/></linearGradient><path d="m304.914062 335.460938 30.171876-30.167969 170.667968 170.664062-30.171875 30.171875zm0 0" fill="#ffdc68"/><path d="m362.667969 192.375c0 94.257812-76.410157 170.667969-170.667969 170.667969s-170.667969-76.410157-170.667969-170.667969c0-94.253906 76.410157-170.664062 170.667969-170.664062s170.667969 76.410156 170.667969 170.664062zm0 0" fill="url(#a)"/><path d="m192 384.375c-106.039062 0-192-85.960938-192-192 0-106.035156 85.960938-192 192-192s192 85.964844 192 192c-.117188 105.992188-86.011719 191.882812-192 192zm0-341.332031c-82.472656 0-149.332031 66.859375-149.332031 149.332031 0 82.476562 66.859375 149.335938 149.332031 149.335938s149.332031-66.859376 149.332031-149.335938c-.09375-82.433594-66.898437-149.238281-149.332031-149.332031zm0 0" fill="#fff2c6"/><path d="m117.332031 128.375h149.335938c5.890625 0 10.664062 4.777344 10.664062 10.667969v106.667969c0 5.890624-4.773437 10.664062-10.664062 10.664062h-149.335938c-5.890625 0-10.664062-4.773438-10.664062-10.664062v-106.667969c0-5.890625 4.773437-10.667969 10.664062-10.667969zm0 0" fill="#ffe58e"/><path d="m184.457031 206.167969c4.167969 4.167969 10.921875 4.167969 15.085938 0l74.667969-74.667969c-2-2.003906-4.714844-3.128906-7.542969-3.125h-149.335938c-2.828125 0-5.542969 1.125-7.539062 3.125zm0 0" fill="#fff2c6"/></svg>