<svg viewBox="0 -21 512.06532 512" xmlns="http://www.w3.org/2000/svg" xmlns:xlink="http://www.w3.org/1999/xlink"><linearGradient id="a" gradientTransform="matrix(2.66667 0 0 -2.66667 .053 517.366)" gradientUnits="userSpaceOnUse" x1="106.555" x2="189.924" y1="84.556" y2="167.925"><stop offset="0" stop-color="#ff80a2"/><stop offset="1" stop-color="#ffdc68"/></linearGradient><linearGradient id="b" gradientTransform="matrix(2.66667 0 0 -2.66667 .053 517.366)" gradientUnits="userSpaceOnUse" x1="96.309" x2="179.679" y1="94.779" y2="178.148"><stop offset="0" stop-color="#ff99b5"/><stop offset="1" stop-color="#ffdc68"/></linearGradient><path d="m463.253906 27.5-30.402344 30.398438c22.933594 16 36.535157 42.132812 36.535157 70.132812v21.335938h42.667969v-21.335938c0-39.199219-18.136719-76.265625-48.800782-100.53125zm0 0" fill="url(#a)"/><path d="m490.71875 106.699219-234.664062 21.332031-234.667969-21.332031c-11.734375 0-21.3320315 9.601562-21.3320315 21.332031v320c0 11.734375 9.5976565 21.335938 21.3320315 21.335938l234.667969-21.335938 234.664062 21.335938c11.734375 0 21.335938-9.601563 21.335938-21.335938v-320c0-11.730469-9.601563-21.332031-21.335938-21.332031zm0 0" fill="#ffe58e"/><path d="m505.121094 432.300781-234.667969-213.335937c-8.265625-7.464844-20.535156-7.464844-28.800781 0l-234.667969 213.335937c-8.796875 8-9.332031 21.332031-1.332031 30.132813 4 4.265625 9.601562 6.933594 15.734375 6.933594h469.332031c11.734375 0 21.335938-9.601563 21.335938-21.335938 0-6.132812-2.667969-11.730469-6.933594-15.730469zm0 0" fill="#ffedb4"/><path d="m510.984375 121.367188c-2.929687-8.800782-10.929687-14.667969-20.265625-14.667969h-469.332031c-11.734375 0-21.3320315 9.601562-21.3320315 21.332031 0 6.933594 3.1992185 13.335938 8.7968745 17.335938l234.667969 170.664062c7.464844 5.335938 17.601563 5.335938 25.066407 0l234.667968-170.664062c7.464844-5.601563 10.664063-15.203126 7.730469-24zm0 0" fill="#fff6d9"/><path d="m384.054688.03125c-70.667969 0-128 57.335938-128 128v96c0 53.066406 42.929687 96 96 96 53.066406 0 96-42.933594 96-96v-74.664062c0-35.46875-28.535157-64-64-64-35.46875 0-64 28.53125-64 64v85.332031h42.664062v-85.332031c0-11.734376 9.601562-21.335938 21.335938-21.335938 11.730468 0 21.332031 9.601562 21.332031 21.335938v74.664062c0 29.335938-24 53.335938-53.332031 53.335938-29.335938 0-53.335938-24-53.335938-53.335938v-96c0-47.199219 38.132812-85.332031 85.335938-85.332031 17.332031 0 34.398437 5.332031 48.796874 15.199219l30.402344-30.398438c-22.667968-17.867188-50.402344-27.46875-79.199218-27.46875zm0 0" fill="url(#b)"/></svg>