<svg viewBox="0 -21 512.13191 512" xmlns="http://www.w3.org/2000/svg" xmlns:xlink="http://www.w3.org/1999/xlink"><linearGradient id="a" gradientTransform="matrix(2.66667 0 0 -2.66667 .053 474.733)" gradientUnits="userSpaceOnUse" x1="119.029" x2="184.973" y1="7.657" y2="73.601"><stop offset="0" stop-color="#ff99b5"/><stop offset="1" stop-color="#ffdc68"/></linearGradient><path d="m490.71875.0664062-234.664062 21.3320318-234.667969-21.3320318c-11.734375 0-21.3320315 9.5976558-21.3320315 21.3320318v320c0 11.734374 9.5976565 21.335937 21.3320315 21.335937l234.667969-21.335937 234.664062 21.335937c11.734375 0 21.335938-9.601563 21.335938-21.335937v-320c0-11.734376-9.601563-21.3320318-21.335938-21.3320318zm0 0" fill="#ffe58e"/><path d="m505.121094 325.664062-234.667969-213.332031c-8.265625-7.464843-20.535156-7.464843-28.800781 0l-234.667969 213.332031c-8.796875 8-9.332031 21.335938-1.332031 30.136719 4 4.265625 9.601562 6.933594 15.734375 6.933594h469.332031c11.734375 0 21.335938-9.601563 21.335938-21.335937 0-6.132813-2.667969-11.734376-6.933594-15.734376zm0 0" fill="#ffedb4"/><path d="m510.984375 14.734375c-2.929687-8.800781-10.929687-14.6679688-20.265625-14.6679688h-469.332031c-11.734375 0-21.3320315 9.5976558-21.3320315 21.3320318 0 6.933593 3.1992185 13.335937 8.7968745 17.335937l234.667969 170.664063c7.464844 5.335937 17.601563 5.335937 25.066407 0l234.667968-170.664063c7.464844-5.601563 10.664063-15.203125 7.730469-24zm0 0" fill="#fff6d9"/><path d="m405.386719 234.734375c-58.933594 0-106.667969 47.730469-106.667969 106.664063 0 23.199218 7.46875 45.601562 21.335938 64v42.667968c0 11.734375 9.597656 21.332032 21.332031 21.332032h32v-42.664063h21.332031v42.664063h21.335938v-42.664063h21.332031v42.664063h32c11.734375 0 21.332031-9.597657 21.332031-21.332032v-42.667968c35.46875-47.199219 25.867188-113.867188-21.332031-149.332032-18.402344-13.867187-40.800781-21.332031-64-21.332031zm-42.667969 149.332031c-11.734375 0-21.332031-9.601562-21.332031-21.332031 0-11.734375 9.597656-21.335937 21.332031-21.335937s21.335938 9.601562 21.335938 21.335937c0 11.730469-9.601563 21.332031-21.335938 21.332031zm85.335938 0c-11.734376 0-21.335938-9.601562-21.335938-21.332031 0-11.734375 9.601562-21.335937 21.335938-21.335937 11.730468 0 21.332031 9.601562 21.332031 21.335937 0 11.730469-9.601563 21.332031-21.332031 21.332031zm0 0" fill="url(#a)"/></svg>