<svg viewBox="0 0 512.00002 512.00002" xmlns="http://www.w3.org/2000/svg" xmlns:xlink="http://www.w3.org/1999/xlink"><linearGradient id="a" gradientTransform="matrix(2.66667 0 0 -2.66667 0 517.333)" gradientUnits="userSpaceOnUse" x1="15.172" x2="176.828" y1="42.828" y2="204.486"><stop offset="0" stop-color="#ff99b5"/><stop offset="1" stop-color="#ffdc68"/></linearGradient><path d="m512 320v-298.667969c0-11.730469-9.601562-21.332031-21.332031-21.332031h-469.335938c-11.730469 0-21.332031 9.601562-21.332031 21.332031v298.667969l21.332031 21.332031-21.332031 21.335938h512l-21.332031-21.335938zm0 0" fill="url(#a)"/><path d="m192 362.667969h128v128h-128zm0 0" fill="#ffedb4"/><path d="m149.332031 469.332031h213.335938v42.667969h-213.335938zm0 0" fill="#ffdc68"/><path d="m0 320v42.667969c0 11.730469 9.601562 21.332031 21.332031 21.332031h469.335938c11.730469 0 21.332031-9.601562 21.332031-21.332031v-42.667969zm0 0" fill="#fff6d9"/><path d="m277.332031 362.667969c0 11.78125-9.550781 21.332031-21.332031 21.332031s-21.332031-9.550781-21.332031-21.332031c0-11.785157 9.550781-21.335938 21.332031-21.335938s21.332031 9.550781 21.332031 21.335938zm0 0" fill="#ffedb4"/><path d="m384 64-128 21.332031-128-21.332031c-11.734375 0-21.332031 9.601562-21.332031 21.332031v192c0 11.734375 9.597656 21.335938 21.332031 21.335938l128-21.335938 128 21.335938c11.734375 0 21.332031-9.601563 21.332031-21.335938v-192c0-11.730469-9.597656-21.332031-21.332031-21.332031zm0 0" fill="#ffe58e"/><path d="m399.199219 262.132812-128-128c-8.265625-8.265624-21.867188-8.265624-30.132813 0l-128 128c-4 4-6.132812 9.332032-6.132812 15.199219v64c0 18.667969 23.199218 28.269531 36.53125 15.203125l78.667968-57.867187h161.867188c11.734375 0 21.332031-9.601563 21.332031-21.335938 0-5.597656-2.132812-11.199219-6.132812-15.199219zm0 0" fill="#ffedb4"/><path d="m404 78.132812c-2.933594-8.53125-11.199219-14.132812-20-14.132812h-256c-11.734375 0-21.332031 9.601562-21.332031 21.332031 0 6.402344 2.933593 12.269531 7.730469 16.269531l128 106.664063c8 6.402344 19.46875 6.402344 27.203124 0l128-106.664063c6.933594-5.601562 9.597657-15.203124 6.398438-23.46875zm0 0" fill="#fff2c6"/></svg>