<svg viewBox="0 -21 512.06532 512" xmlns="http://www.w3.org/2000/svg" xmlns:xlink="http://www.w3.org/1999/xlink"><linearGradient id="a" gradientTransform="matrix(2.66667 0 0 -2.66667 .053 474.699)" gradientUnits="userSpaceOnUse" x1="111.166" x2="176.834" y1="14.952" y2="80.621"><stop offset="0" stop-color="#ff99b5"/><stop offset="1" stop-color="#ffdc68"/></linearGradient><path d="m490.71875.03125-234.664062 21.335938-234.667969-21.335938c-11.734375 0-21.3320315 9.601562-21.3320315 21.335938v320c0 11.730468 9.5976565 21.332031 21.3320315 21.332031l234.667969-21.332031 234.664062 21.332031c11.734375 0 21.335938-9.601563 21.335938-21.332031v-320c0-11.734376-9.601563-21.335938-21.335938-21.335938zm0 0" fill="#ffe58e"/><path d="m505.121094 325.632812-234.667969-213.332031c-8.265625-7.46875-20.535156-7.46875-28.800781 0l-234.667969 213.332031c-8.796875 8-9.332031 21.332032-1.332031 30.132813 4 4.265625 9.601562 6.933594 15.734375 6.933594h469.332031c11.734375 0 21.335938-9.601563 21.335938-21.332031 0-6.132813-2.667969-11.734376-6.933594-15.734376zm0 0" fill="#ffedb4"/><path d="m510.984375 14.699219c-2.929687-8.800781-10.929687-14.667969-20.265625-14.667969h-469.332031c-11.734375 0-21.3320315 9.601562-21.3320315 21.335938 0 6.933593 3.1992185 13.332031 8.7968745 17.332031l234.667969 170.667969c7.464844 5.332031 17.601563 5.332031 25.066407 0l234.667968-170.667969c7.464844-5.601563 10.664063-15.199219 7.730469-24zm0 0" fill="#fff6d9"/><path d="m474.984375 262.964844c-8.796875-9.867188-25.066406-9.066406-33.066406 1.335937l-9.332031 12.53125-28.800782-71.464843c-6.933594-16.269532-30.664062-17.335938-38.933594-1.601563l-31.730468 63.734375c-4-2.667969-8-5.335938-12-8-8.800782-5.867188-20.800782-4.265625-28 3.734375-24.535156 27.730469-37.066406 54.132813-37.066406 78.132813 0 70.664062 57.332031 128 128 128 70.664062 0 128-57.335938 128-128 0-24-12.535157-50.402344-37.070313-78.402344zm0 0" fill="url(#a)"/><path d="m341.386719 384.03125c0-23.464844 42.667969-64 42.667969-64s42.664062 40.535156 42.664062 64c0 23.46875-19.199219 42.667969-42.664062 42.667969-23.46875 0-42.667969-19.199219-42.667969-42.667969zm0 0" fill="#fff"/></svg>