<svg viewBox="0 0 512.05279 512" xmlns="http://www.w3.org/2000/svg" xmlns:xlink="http://www.w3.org/1999/xlink"><linearGradient id="a" gradientTransform="matrix(2.66667 0 0 -2.66667 .053 517.293)" gradientUnits="userSpaceOnUse" x1="36.343" x2="155.657" y1="58.343" y2="177.657"><stop offset="0" stop-color="#ff99b5"/><stop offset="1" stop-color="#ffdc68"/></linearGradient><path d="m502.1875 152.757812-234.667969-149.332031c-6.933593-4.53125-16-4.53125-22.933593 0l-234.667969 149.332031c-6.132813 3.734376-9.8632815 10.667969-9.8632815 17.867188l21.3320315 149.335938-21.3320315 170.664062c0 11.734375 9.5976565 21.335938 21.3320315 21.335938l234.667969-21.335938 234.664062 21.335938c11.734375 0 21.335938-9.601563 21.335938-21.335938l-21.335938-170.664062 21.335938-149.335938c0-7.199219-3.734376-14.132812-9.867188-17.867188zm0 0" fill="#ffe58e"/><path d="m106.71875 42.625h298.667969c11.734375 0 21.332031 9.601562 21.332031 21.335938v277.332031c0 11.734375-9.597656 21.332031-21.332031 21.332031h-298.667969c-11.734375 0-21.332031-9.597656-21.332031-21.332031v-277.332031c0-11.734376 9.597656-21.335938 21.332031-21.335938zm0 0" fill="url(#a)"/><path d="m143.253906 271.160156-30.402344-30.402344 64-64c6.402344-6.398437 16.535157-8 24.535157-4l28.800781 14.402344 53.066406-53.066406c8.800782-8.800781 24-8 31.730469 1.867188l85.335937 106.664062-33.335937 26.667969-70.398437-88-46.667969 47.199219c-6.398438 6.402343-16.53125 8-24.53125 4l-28.800781-14.398438zm0 0" fill="#fff"/><path d="m362.71875 106.625c0 11.785156-9.550781 21.335938-21.332031 21.335938s-21.332031-9.550782-21.332031-21.335938c0-11.78125 9.550781-21.332031 21.332031-21.332031s21.332031 9.550781 21.332031 21.332031zm0 0" fill="#fff"/><path d="m.0546875 170.625v320c0 11.734375 9.5976565 21.335938 21.3320315 21.335938l234.667969-21.335938 234.664062 21.335938c11.734375 0 21.335938-9.601563 21.335938-21.335938v-320l-256 144.269531zm0 0" fill="#ffedb4"/><path d="m505.121094 474.894531-234.667969-213.335937c-8.265625-7.464844-20.535156-7.464844-28.800781 0l-234.667969 213.335937c-8.796875 8-9.332031 21.332031-1.332031 30.132813 4 4.265625 9.601562 6.933594 15.734375 6.933594h469.332031c11.734375 0 21.335938-9.601563 21.335938-21.335938 0-6.132812-2.667969-11.730469-6.933594-15.730469zm0 0" fill="#fff2c6"/></svg>