<svg height="496pt" viewBox="0 0 496 496" width="496pt" xmlns="http://www.w3.org/2000/svg"><path d="m456 8h-208c-17.671875 0-32 14.328125-32 32v112c0 17.671875 14.328125 32 32 32h72l32 64 32-64h72c17.671875 0 32-14.328125 32-32v-112c0-17.671875-14.328125-32-32-32zm0 0" fill="#568e53"/><path d="m248 248h-208c-17.671875 0-32 14.328125-32 32v112c0 17.671875 14.328125 32 32 32h72l32 64 32-64h72c17.671875 0 32-14.328125 32-32v-112c0-17.671875-14.328125-32-32-32zm0 0" fill="#7ecb92"/><path d="m352 256c-3.03125 0-5.800781-1.710938-7.160156-4.425781l-29.785156-59.574219h-67.054688c-22.054688 0-40-17.945312-40-40v-112c0-22.054688 17.945312-40 40-40h208c22.054688 0 40 17.945312 40 40v112c0 22.054688-17.945312 40-40 40h-67.054688l-29.792968 59.574219c-1.351563 2.714843-4.121094 4.425781-7.152344 4.425781zm-104-240c-13.230469 0-24 10.769531-24 24v112c0 13.230469 10.769531 24 24 24h72c3.03125 0 5.800781 1.710938 7.160156 4.425781l24.839844 49.6875 24.839844-49.6875c1.359375-2.714843 4.128906-4.425781 7.160156-4.425781h72c13.230469 0 24-10.769531 24-24v-112c0-13.230469-10.769531-24-24-24zm0 0"/><path d="m344 32h16v96h-16zm0 0"/><path d="m344 144h16v16h-16zm0 0"/><path d="m144 496c-3.03125 0-5.800781-1.710938-7.160156-4.425781l-29.785156-59.574219h-67.054688c-22.054688 0-40-17.945312-40-40v-112c0-22.054688 17.945312-40 40-40h208c22.054688 0 40 17.945312 40 40v112c0 22.054688-17.945312 40-40 40h-67.054688l-29.792968 59.574219c-1.351563 2.714843-4.121094 4.425781-7.152344 4.425781zm-104-240c-13.230469 0-24 10.769531-24 24v112c0 13.230469 10.769531 24 24 24h72c3.03125 0 5.800781 1.710938 7.160156 4.425781l24.839844 49.6875 24.839844-49.6875c1.359375-2.714843 4.128906-4.425781 7.160156-4.425781h72c13.230469 0 24-10.769531 24-24v-112c0-13.230469-10.769531-24-24-24zm0 0"/><path d="m136 272h16v96h-16zm0 0"/><path d="m136 384h16v16h-16zm0 0"/></svg>